<svg id="fa476257-d80e-4158-b0f2-3ca86b361b74" data-name="Capa 1" xmlns="http://www.w3.org/2000/svg" viewBox="0 0 22.36 22.36"><defs><style>.b4bc4121-d138-42e7-8acf-d69c985f45fc{fill:#fff;}</style></defs><title>iconosss</title><path class="b4bc4121-d138-42e7-8acf-d69c985f45fc" d="M16.73,2l3.62,3.63a.46.46,0,0,0,.76-.21L22.35.56A.46.46,0,0,0,21.8,0L16.93,1.26A.45.45,0,0,0,16.73,2Z"/><path class="b4bc4121-d138-42e7-8acf-d69c985f45fc" d="M18.58,13.82V8c0-.39-.34-.64-.61-.44l-3.89,2.92a.58.58,0,0,0,0,.88L18,14.26C18.24,14.46,18.58,14.21,18.58,13.82Z"/><path class="b4bc4121-d138-42e7-8acf-d69c985f45fc" d="M2,5.64,5.64,2a.45.45,0,0,0-.21-.75L.56,0A.46.46,0,0,0,0,.56L1.26,5.43A.45.45,0,0,0,2,5.64Z"/><path class="b4bc4121-d138-42e7-8acf-d69c985f45fc" d="M5.64,20.35,2,16.73a.44.44,0,0,0-.75.2L0,21.8a.46.46,0,0,0,.55.55L5.43,21.1A.45.45,0,0,0,5.64,20.35Z"/><path class="b4bc4121-d138-42e7-8acf-d69c985f45fc" d="M20.35,16.73l-3.62,3.62a.45.45,0,0,0,.2.75l4.87,1.25a.46.46,0,0,0,.55-.55l-1.24-4.87A.45.45,0,0,0,20.35,16.73Z"/><rect class="b4bc4121-d138-42e7-8acf-d69c985f45fc" x="4.62" y="6.5" width="8.85" height="9.23" rx="0.94"/></svg>