<svg id="f92ded70-3477-445e-9403-1830311816fd" data-name="Capa 1" xmlns="http://www.w3.org/2000/svg" viewBox="0 0 22.23 22.23"><defs><style>.e4c58d3c-5da8-435a-b5c8-339341372b8a{fill:#fff;}</style></defs><title>iconosss</title><path class="e4c58d3c-5da8-435a-b5c8-339341372b8a" d="M20.46,0H1.78A1.77,1.77,0,0,0,0,1.77V20.45a1.78,1.78,0,0,0,1.78,1.78H20.46a1.78,1.78,0,0,0,1.77-1.78V1.77A1.77,1.77,0,0,0,20.46,0ZM4.21,13.38a2.35,2.35,0,0,0,1.89.77,3.86,3.86,0,0,0,1-.12,5.92,5.92,0,0,0,1-.35l.16,1.42a5,5,0,0,1-2.15.48,4.53,4.53,0,0,1-2.18-.52,3.7,3.7,0,0,1-1.47-1.49,4.57,4.57,0,0,1-.53-2.23,4.49,4.49,0,0,1,.54-2.21A3.9,3.9,0,0,1,4,7.64a4.5,4.5,0,0,1,2.18-.52,4.43,4.43,0,0,1,2.11.48L8.09,9a5.66,5.66,0,0,0-1-.35,4,4,0,0,0-1-.12,2.37,2.37,0,0,0-1.91.77,3,3,0,0,0-.66,2A3,3,0,0,0,4.21,13.38Zm8-2.58H10.92v2.61a3,3,0,0,0,.05.65.35.35,0,0,0,.23.24,2.74,2.74,0,0,0,.6,0h.41l-.14,1.19H11a1.46,1.46,0,0,1-1.16-.45A1.51,1.51,0,0,1,9.48,14V10.8H8.66l.12-1.19h.7V8.32l1.44-.14V9.61h1.29Zm4,.13a2.55,2.55,0,0,0-.51-.06A1.38,1.38,0,0,0,15,11a1,1,0,0,0-.43.42v4H13.15V9.61h1.34l0,.62a2.18,2.18,0,0,1,.66-.52A1.81,1.81,0,0,1,16,9.49l.26,0Zm2.8,4.6h-.52a1.38,1.38,0,0,1-1.11-.43A1.64,1.64,0,0,1,17,14V6.7h1.44v6.71a2.91,2.91,0,0,0,.06.66.3.3,0,0,0,.19.24,2.39,2.39,0,0,0,.46,0Z"/></svg>