<svg id="f927aa25-b1c2-4b4b-bdb2-0e477f887134" data-name="Capa 1" xmlns="http://www.w3.org/2000/svg" viewBox="0 0 15.33 22.34"><defs><style>.b432246b-cc60-4f7d-a69f-d43691628c55{fill:#fff;}</style></defs><title>iconosss</title><path class="b432246b-cc60-4f7d-a69f-d43691628c55" d="M9.81,19.74h4.64a.76.76,0,0,1,.77.77v1a.77.77,0,0,1-.77.78H1a.77.77,0,0,1-.77-.78v-1A.76.76,0,0,1,1,19.74H5.46L.23,14.51a.76.76,0,0,1,0-1.09L1,12.67a.77.77,0,0,1,1.09,0L6.36,17V.77A.78.78,0,0,1,7.14,0h1A.77.77,0,0,1,9,.77V16.92l4.3-4.31a.77.77,0,0,1,1.09,0l.75.75a.77.77,0,0,1,0,1.09Z"/></svg>