<svg id="b863ee1f-248a-4cab-9181-099fe8c417c8" data-name="Capa 1" xmlns="http://www.w3.org/2000/svg" viewBox="0 0 81.59 33.74"><defs><style>.b841ecb3-5c13-4d73-8c0f-008bf3580d51{fill:#fff;}</style></defs><title>Sin título-1</title><path class="b841ecb3-5c13-4d73-8c0f-008bf3580d51" d="M12.47,16.63a5.14,5.14,0,0,0-4.9-3.18,5.16,5.16,0,0,0-4.91,3.18A10.47,10.47,0,0,0,2,20.2H13.14a8.52,8.52,0,0,0-.67-3.57M8.16,29.26A6.59,6.59,0,0,0,13.38,27l1.49,1.17A8.58,8.58,0,0,1,8,31.07c-5.22,0-8-3.38-8-9.69,0-6.12,2.82-9.69,7.57-9.69s7.57,3.41,7.57,9.22v.9H2c0,4.83,2.12,7.45,6.16,7.45"/><polygon class="b841ecb3-5c13-4d73-8c0f-008bf3580d51" points="22.39 0 22.39 33.74 28.19 33.74 28.19 31.97 24.39 31.97 24.39 1.77 28.19 1.77 28.19 0 22.39 0"/><path class="b841ecb3-5c13-4d73-8c0f-008bf3580d51" d="M39.76,21.81c-3.22,0-4.83,1.25-4.83,3.8s1.49,3.69,4.94,3.69c1.73,0,3.34-.15,4.71-1.45.71-.67,1.06-1.88,1.06-3.61V21.81ZM45.64,29c-1.61,1.61-3.1,2.12-5.77,2.12s-4.35-.47-5.57-1.73a5.23,5.23,0,0,1-1.37-3.69c0-3.45,2.47-5.45,6.59-5.45h6.12V18.08c0-3-1.45-4.63-5.33-4.63-2.67,0-4,.67-5.22,2.4l-1.45-1.26c1.6-2.23,3.57-2.9,6.67-2.9,5,0,7.33,2.23,7.33,6.2V30.83h-2Z"/><path class="b841ecb3-5c13-4d73-8c0f-008bf3580d51" d="M62.1,13.45c-4.63,0-5.33,4-5.33,7.93s.7,7.92,5.33,7.92,5.34-4,5.34-7.92-.71-7.93-5.34-7.93m5.34,15a6.27,6.27,0,0,1-5.61,2.67,6.55,6.55,0,0,1-4.63-1.65c-1.92-1.92-2.43-5.06-2.43-8s.51-6.12,2.43-8a6.55,6.55,0,0,1,4.63-1.65,6.27,6.27,0,0,1,5.61,2.67V2.9h2V30.83h-2Z"/><polygon class="b841ecb3-5c13-4d73-8c0f-008bf3580d51" points="75.78 0 75.78 1.65 79.7 1.65 79.7 32.09 75.78 32.09 75.78 33.74 81.59 33.74 81.59 0 75.78 0"/></svg>