<svg id="f023fbc7-80bf-4d7f-a636-27b726c89d06" data-name="Capa 1" xmlns="http://www.w3.org/2000/svg" viewBox="0 0 35.44 35.44"><defs><style>.a4e7120a-1e39-419c-8298-9e397a813406{fill:#ffa1ff;}</style></defs><title>Sin título-1</title><path class="a4e7120a-1e39-419c-8298-9e397a813406" d="M30.67,0H4.78A4.78,4.78,0,0,0,0,4.78V30.67a4.78,4.78,0,0,0,4.78,4.77H17.55l0-12.66H14.28A.78.78,0,0,1,13.5,22l0-4.08a.78.78,0,0,1,.78-.78h3.29V13.2c0-4.58,2.79-7.07,6.88-7.07h3.35a.77.77,0,0,1,.77.77v3.45a.77.77,0,0,1-.77.77H25.72c-2.22,0-2.65,1.06-2.65,2.61v3.41H28a.78.78,0,0,1,.77.87l-.48,4.08a.79.79,0,0,1-.77.69H23.09l0,12.66h7.6a4.78,4.78,0,0,0,4.77-4.77V4.78A4.78,4.78,0,0,0,30.67,0Z"/></svg>