<svg id="a433e8e8-079e-4ec8-b328-d95c3427f518" data-name="Capa 1" xmlns="http://www.w3.org/2000/svg" viewBox="0 0 35.3 35.3"><defs><style>.ad724b39-da94-4903-8c8c-cbfba64539d7{fill:#ffa1ff;}</style></defs><title>Sin título-1</title><path class="ad724b39-da94-4903-8c8c-cbfba64539d7" d="M25.56,0H9.74A9.75,9.75,0,0,0,0,9.74V25.56A9.75,9.75,0,0,0,9.74,35.3H25.56a9.75,9.75,0,0,0,9.74-9.74V9.74A9.75,9.75,0,0,0,25.56,0Zm6.61,25.56a6.62,6.62,0,0,1-6.61,6.61H9.74a6.62,6.62,0,0,1-6.61-6.61V9.74A6.62,6.62,0,0,1,9.74,3.13H25.56a6.62,6.62,0,0,1,6.61,6.61V25.56Z"/><path class="ad724b39-da94-4903-8c8c-cbfba64539d7" d="M17.65,8.55a9.1,9.1,0,1,0,9.1,9.1A9.11,9.11,0,0,0,17.65,8.55Zm0,15.06a6,6,0,1,1,6-6A6,6,0,0,1,17.65,23.61Z"/><path class="ad724b39-da94-4903-8c8c-cbfba64539d7" d="M27.13,5.9a2.29,2.29,0,0,0-1.62.67,2.28,2.28,0,0,0,0,3.25,2.29,2.29,0,0,0,3.24,0,2.28,2.28,0,0,0,0-3.25A2.29,2.29,0,0,0,27.13,5.9Z"/></svg>