<svg id="b28bb8e7-3527-46c1-af86-814bd829159e" data-name="Capa 1" xmlns="http://www.w3.org/2000/svg" viewBox="0 0 14.93 22.35"><defs><style>.bf41ccaf-9d2c-4b0d-b016-ce21e283a2b0{fill:#fff;}</style></defs><title>iconosss</title><path class="bf41ccaf-9d2c-4b0d-b016-ce21e283a2b0" d="M8.23,0a11.86,11.86,0,0,0-1.62,0C3.18.37,0,2.25,0,5.57v9.32a7.47,7.47,0,0,0,14.93,0V5.57C14.93,2,11.56.19,8.23,0ZM1.41,5.57c0-2.46,2.67-3.89,5.44-4.13V10a21.47,21.47,0,0,1-5.44-1Zm12.11,9.32a6.06,6.06,0,1,1-12.11,0V10.53a22.63,22.63,0,0,0,6.4,1,17.65,17.65,0,0,0,5.71-.91v4.32Zm0-5.82a15.75,15.75,0,0,1-5.27,1V1.42c2.71.16,5.27,1.46,5.27,4.15ZM2.44,8a13.49,13.49,0,0,0,3.44.57V2.84C3.55,3.27,2.06,4,2.44,8Z"/></svg>