<svg id="bd351bcd-437d-44f2-bc8f-3b549611d71a" data-name="Capa 1" xmlns="http://www.w3.org/2000/svg" viewBox="0 0 22.26 22.27"><defs><style>.a303e3ee-b05f-4c36-a24e-06aa70080ba4{fill:#fff;}</style></defs><title>iconosss</title><path class="a303e3ee-b05f-4c36-a24e-06aa70080ba4" d="M10,5.89H8.26v4H9.9c1.65,0,2.46-.67,2.46-2a1.85,1.85,0,0,0-.56-1.46A2.63,2.63,0,0,0,10,5.89ZM20.49,0H1.77A1.78,1.78,0,0,0,0,1.77V20.49a1.78,1.78,0,0,0,1.77,1.78H20.49a1.77,1.77,0,0,0,1.77-1.78V1.77A1.77,1.77,0,0,0,20.49,0Zm-7.6,16.24L10.53,11.7H8.26v4.54H6V4h4.47A4.73,4.73,0,0,1,13.58,5a3.41,3.41,0,0,1,1.13,2.77,3.68,3.68,0,0,1-.54,2.09,3.92,3.92,0,0,1-1.55,1.3l2.77,5.13Z"/></svg>