<svg id="aa68c438-6410-4c77-a4d0-2bc47cdd3a27" data-name="Capa 1" xmlns="http://www.w3.org/2000/svg" viewBox="0 0 14.93 22.35"><defs><style>.a262da80-0172-4e34-8443-187f0f06e584{fill:#fff;}</style></defs><title>iconosss</title><path class="a262da80-0172-4e34-8443-187f0f06e584" d="M8.23,0a10.4,10.4,0,0,0-1.62,0C3.18.37,0,2.25,0,5.57v9.32a7.47,7.47,0,0,0,14.93,0V5.56C14.93,2,11.56.19,8.23,0ZM7.46,6.74a1.11,1.11,0,0,1,1.1,1.11v3a1.1,1.1,0,1,1-2.2,0v-3A1.11,1.11,0,0,1,7.46,6.74ZM1.4,5.56c0-2.45,2.68-3.88,5.45-4.12V5.62a2.3,2.3,0,0,0-1.7,2.23v2A21.32,21.32,0,0,1,1.4,9.05Zm12.12,9.33a6.06,6.06,0,0,1-12.12,0V10.52a22.26,22.26,0,0,0,3.79.79,2.31,2.31,0,0,0,4.53.07,16.06,16.06,0,0,0,3.8-.81Zm0-5.82A14.36,14.36,0,0,1,9.77,10V7.85A2.31,2.31,0,0,0,8.26,5.68V1.42c2.71.16,5.26,1.46,5.26,4.14Z"/></svg>