<svg id="abe0835b-dd75-481f-900d-b52871ae4ce1" data-name="Capa 1" xmlns="http://www.w3.org/2000/svg" viewBox="0 0 42.17 35.08"><defs><style>.abd7ba8d-82b6-413c-ba14-370281487948{fill:#ffa1ff;}</style></defs><title>Sin título-1</title><path class="abd7ba8d-82b6-413c-ba14-370281487948" d="M41.5,4.08a16.6,16.6,0,0,1-2.91,1A9,9,0,0,0,41,1.25h0A.47.47,0,0,0,40.29.7h0a16.78,16.78,0,0,1-4.45,1.83.84.84,0,0,1-.27,0,1.17,1.17,0,0,1-.78-.3,9.12,9.12,0,0,0-6-2.27,9.87,9.87,0,0,0-2.88.44A8.8,8.8,0,0,0,20,6.79a9.77,9.77,0,0,0-.22,3.35.37.37,0,0,1-.08.25.33.33,0,0,1-.25.12h0A23.82,23.82,0,0,1,3,1.75H3a.48.48,0,0,0-.78.06h0a9.1,9.1,0,0,0,1.48,11,8.15,8.15,0,0,1-2.07-.8h0a.48.48,0,0,0-.71.41h0a9.12,9.12,0,0,0,5.31,8.39H6a8,8,0,0,1-1.54-.15h0a.48.48,0,0,0-.54.62H4a9.12,9.12,0,0,0,7.2,6.19,16.76,16.76,0,0,1-9.4,2.86H.7A.7.7,0,0,0,0,30.9a.72.72,0,0,0,.35.8,25,25,0,0,0,12.54,3.38A25.28,25.28,0,0,0,23.62,32.8a23.66,23.66,0,0,0,7.84-5.87,25.65,25.65,0,0,0,4.8-8,25.35,25.35,0,0,0,1.63-8.8V10a1.53,1.53,0,0,1,.58-1.2,18.23,18.23,0,0,0,3.62-4h0a.48.48,0,0,0-.59-.7Z"/></svg>